# Blender v2.78 (sub 0) OBJ File: ''
# www.blender.org
g FloorQuad
v -5.000000 -0.500000 5.000000
v -5.000000 0.500000 5.000000
v -5.000000 -0.500000 -5.000000
v -5.000000 0.500000 -5.000000
v 5.000000 -0.500000 5.000000
v 5.000000 0.500000 5.000000
v 5.000000 -0.500000 -5.000000
v 5.000000 0.500000 -5.000000
vt 0.0000 1.0977
vt 0.0000 1.0000
vt 1.0000 1.0000
vt 1.0000 1.0977
vt 1.0977 1.0000
vt 1.0000 0.0000
vt 1.0977 0.0000
vt 1.0000 -0.0977
vt 0.0000 0.0000
vt 0.0000 -0.0977
vt -0.0977 0.0000
vt -0.0977 1.0000
vt 1.0000 1.0000
vt 0.0000 1.0000
vt 0.0000 0.0000
vt 1.0000 0.0000
vn -1.0000 0.0000 0.0000
vn 0.0000 0.0000 -1.0000
vn 1.0000 0.0000 0.0000
vn 0.0000 0.0000 1.0000
vn 0.0000 -1.0000 0.0000
vn 0.0000 1.0000 0.0000
s off
f 1/1/1 2/2/1 4/3/1 3/4/1
f 3/5/2 4/3/2 8/6/2 7/7/2
f 7/8/3 8/6/3 6/9/3 5/10/3
f 5/11/4 6/9/4 2/2/4 1/12/4
f 3/13/5 7/14/5 5/15/5 1/16/5
f 8/6/6 4/3/6 2/2/6 6/9/6
