# Blender v2.76 (sub 0) OBJ File: 'GravityRamps.blend'
# www.blender.org
g RampCorner
v -0.500000 -0.200000 0.000000
v -0.500000 0.200000 0.000000
v 0.500000 -0.200000 0.000000
v 0.500000 0.200000 0.000000
v -0.469221 -0.200000 0.391086
v -0.469221 0.200000 0.391086
v 0.518467 -0.200000 0.234652
v 0.518467 0.200000 0.234652
v -0.377641 -0.200000 0.772543
v -0.377641 0.200000 0.772543
v 0.573415 -0.200000 0.463526
v 0.573415 0.200000 0.463526
v -0.227516 -0.200000 1.134976
v -0.227516 0.200000 1.134976
v 0.663490 -0.200000 0.680986
v 0.663490 0.200000 0.680986
v -0.022543 -0.200000 1.469463
v -0.022543 0.200000 1.469463
v 0.786474 -0.200000 0.881678
v 0.786474 0.200000 0.881678
v 0.232233 -0.200000 1.767767
v 0.232233 0.200000 1.767767
v 0.939340 -0.200000 1.060660
v 0.939340 0.200000 1.060660
v 0.530537 -0.200000 2.022543
v 0.530537 0.200000 2.022543
v 1.118322 -0.200000 1.213526
v 1.118322 0.200000 1.213526
v 0.865024 -0.200000 2.227517
v 0.865024 0.200000 2.227517
v 1.319014 -0.200000 1.336510
v 1.319014 0.200000 1.336510
v 1.227458 -0.200000 2.377642
v 1.227458 0.200000 2.377642
v 1.536475 -0.200000 1.426585
v 1.536475 0.200000 1.426585
v 1.608914 -0.200000 2.469222
v 1.608914 0.200000 2.469222
v 1.765348 -0.200000 1.481533
v 1.765348 0.200000 1.481533
v 2.000000 -0.200000 2.500000
v 2.000000 0.200000 2.500000
v 2.000000 -0.200000 1.500000
v 2.000000 0.200000 1.500000
vn 0.000000 0.000000 -1.000000
vn 0.000000 1.000000 -0.000000
vn -0.996900 0.000000 0.078500
vn 0.000000 -1.000000 0.000000
vn 0.996900 0.000000 -0.078500
vn -0.972400 0.000000 0.233400
vn 0.972400 0.000000 -0.233400
vn 0.923900 0.000000 -0.382700
vn -0.923900 0.000000 0.382700
vn -0.760400 0.000000 0.649400
vn -0.852600 0.000000 0.522500
vn 0.852600 0.000000 -0.522500
vn 0.760400 0.000000 -0.649400
vn 0.649400 0.000000 -0.760400
vn -0.649400 0.000000 0.760400
vn -0.522500 0.000000 0.852600
vn 0.522500 0.000000 -0.852600
vn 0.233400 0.000000 -0.972400
vn 0.382700 0.000000 -0.923900
vn -0.382700 0.000000 0.923900
vn -0.233400 0.000000 0.972400
vn 1.000000 0.000000 0.000000
vn -0.078500 0.000000 0.996900
vn 0.078500 0.000000 -0.996900
s off
f 3//1 1//1 2//1
f 6//2 10//2 12//2
f 2//2 6//2 8//2
f 5//3 6//3 2//3
f 7//4 5//4 1//4
f 8//5 7//5 3//5
f 15//4 13//4 9//4
f 9//6 10//6 6//6
f 11//4 9//4 5//4
f 12//7 11//7 7//7
f 18//2 20//2 16//2
f 16//8 15//8 11//8
f 10//2 14//2 16//2
f 13//9 14//9 10//9
f 21//10 22//10 18//10
f 17//11 18//11 14//11
f 19//4 17//4 13//4
f 20//12 19//12 15//12
f 27//4 25//4 21//4
f 19//4 23//4 21//4
f 24//13 23//13 19//13
f 22//2 24//2 20//2
f 30//2 32//2 28//2
f 28//14 27//14 23//14
f 26//2 28//2 24//2
f 25//15 26//15 22//15
f 35//4 33//4 29//4
f 29//16 30//16 26//16
f 31//4 29//4 25//4
f 32//17 31//17 27//17
f 40//18 39//18 35//18
f 36//19 35//19 31//19
f 34//2 36//2 32//2
f 33//20 34//20 30//20
f 42//2 44//2 40//2
f 34//2 38//2 40//2
f 37//21 38//21 34//21
f 39//4 37//4 33//4
f 42//22 41//22 43//22
f 41//23 42//23 38//23
f 39//4 43//4 41//4
f 44//24 43//24 39//24
f 4//1 3//1 2//1
f 8//2 6//2 12//2
f 4//2 2//2 8//2
f 1//3 5//3 2//3
f 3//4 7//4 1//4
f 4//5 8//5 3//5
f 11//4 15//4 9//4
f 5//6 9//6 6//6
f 7//4 11//4 5//4
f 8//7 12//7 7//7
f 14//2 18//2 16//2
f 12//8 16//8 11//8
f 12//2 10//2 16//2
f 9//9 13//9 10//9
f 17//10 21//10 18//10
f 13//11 17//11 14//11
f 15//4 19//4 13//4
f 16//12 20//12 15//12
f 23//4 27//4 21//4
f 17//4 19//4 21//4
f 20//13 24//13 19//13
f 18//2 22//2 20//2
f 26//2 30//2 28//2
f 24//14 28//14 23//14
f 22//2 26//2 24//2
f 21//15 25//15 22//15
f 31//4 35//4 29//4
f 25//16 29//16 26//16
f 27//4 31//4 25//4
f 28//17 32//17 27//17
f 36//18 40//18 35//18
f 32//19 36//19 31//19
f 30//2 34//2 32//2
f 29//20 33//20 30//20
f 38//2 42//2 40//2
f 36//2 34//2 40//2
f 33//21 37//21 34//21
f 35//4 39//4 33//4
f 44//22 42//22 43//22
f 37//23 41//23 38//23
f 37//4 39//4 41//4
f 40//24 44//24 39//24
