# Blender v2.76 (sub 0) OBJ File: 'GravityRamps.blend'
# www.blender.org
g RampUpCollider
v -0.500000 -0.200000 0.000000
v -0.500000 0.200000 0.000000
v 0.500000 -0.200000 0.000000
v 0.500000 0.200000 0.000000
v 0.500000 1.718418 1.777839
v 0.500000 1.655844 2.172915
v -0.500000 1.718418 1.777839
v -0.500000 1.655844 2.172915
v -0.500000 1.320163 2.092324
v -0.500000 1.443769 1.711902
v 0.500000 1.320163 2.092324
v 0.500000 1.443769 1.711902
v 0.500000 1.182817 1.603812
v 0.500000 1.001221 1.960214
v -0.500000 1.182817 1.603812
v -0.500000 1.001221 1.960214
v -0.500000 0.706872 1.779837
v -0.500000 0.941987 1.456231
v 0.500000 0.706872 1.779837
v 0.500000 0.941987 1.456231
v 0.500000 0.727208 1.272792
v 0.500000 0.444365 1.555635
v -0.500000 0.727208 1.272792
v -0.500000 0.444365 1.555635
v -0.500000 0.220163 1.293128
v -0.500000 0.543769 1.058014
v 0.500000 0.220163 1.293128
v 0.500000 0.543769 1.058014
v 0.500000 0.396188 0.817183
v 0.500000 0.039786 0.998779
v -0.500000 0.396188 0.817183
v -0.500000 0.039786 0.998779
v -0.500000 -0.092324 0.679837
v -0.500000 0.288098 0.556231
v 0.500000 -0.092324 0.679837
v 0.500000 0.288098 0.556231
v 0.500000 0.222161 0.281582
v 0.500000 -0.172914 0.344156
v -0.500000 0.222161 0.281582
v -0.500000 -0.172914 0.344156
v 0.500000 2.000000 1.800000
v 0.500000 2.000000 2.200000
v -0.500000 2.000000 1.800000
v -0.500000 2.000000 2.200000
v 0.500000 1.718418 1.777839
v -0.500000 1.718418 1.777839
v -0.500000 1.655844 2.172915
v 0.500000 1.655844 2.172915
v 0.500000 1.443769 1.711902
v -0.500000 1.443769 1.711902
v -0.500000 1.320163 2.092324
v 0.500000 1.320163 2.092324
v -0.500000 1.001221 1.960214
v 0.500000 1.001221 1.960214
v -0.500000 1.182817 1.603812
v 0.500000 1.182817 1.603812
v -0.500000 0.706872 1.779837
v -0.500000 0.941987 1.456231
v 0.500000 0.941987 1.456231
v 0.500000 0.706872 1.779837
v 0.500000 0.727208 1.272792
v -0.500000 0.727208 1.272792
v -0.500000 0.444365 1.555635
v 0.500000 0.444365 1.555635
v -0.500000 0.220162 1.293128
v 0.500000 0.220162 1.293128
v -0.500000 0.543769 1.058014
v 0.500000 0.543769 1.058014
v -0.500000 0.039786 0.998779
v -0.500000 0.396188 0.817183
v 0.500000 0.396188 0.817183
v 0.500000 0.039786 0.998779
v 0.500000 0.288098 0.556231
v -0.500000 0.288098 0.556231
v -0.500000 -0.092324 0.679837
v 0.500000 -0.092324 0.679837
v -0.500000 -0.172914 0.344156
v 0.500000 -0.172914 0.344156
v -0.500000 0.222161 0.281582
v 0.500000 0.222161 0.281582
vn 0.000000 0.000000 -1.000000
vn 1.000000 0.000000 0.000000
vn 0.000000 0.382700 -0.923900
vn 0.000000 -0.233400 0.972400
vn -1.000000 0.000000 0.000000
vn 0.000000 0.233400 -0.972400
vn 0.000000 -0.382700 0.923900
vn 0.000000 -0.522500 0.852600
vn 0.000000 -0.760400 0.649400
vn 0.000000 0.649400 -0.760400
vn 0.000000 -0.649400 0.760400
vn 0.000000 0.522500 -0.852600
vn 0.000000 0.760400 -0.649400
vn 0.000000 -0.852600 0.522500
vn 0.000000 0.923900 -0.382700
vn 0.000000 -0.923900 0.382700
vn 0.000000 0.852600 -0.522500
vn 0.000000 -0.996900 0.078500
vn 0.000000 0.972400 -0.233400
vn 0.000000 -0.972400 0.233400
vn 0.000000 0.996900 -0.078500
vn 0.000000 1.000000 0.000000
vn 0.000000 -0.078500 0.996900
vn 0.000000 0.078500 -0.996900
vn 0.000000 -0.987700 -0.156400
vn 0.000000 0.987700 0.156400
vn 0.000000 -0.951100 -0.309000
vn 0.000000 0.951100 0.309000
vn 0.000000 -0.891000 -0.454000
vn 0.000000 0.891000 0.454000
vn 0.000000 -0.809000 -0.587800
vn 0.000000 0.809000 0.587800
vn 0.000000 -0.707100 -0.707100
vn 0.000000 0.707100 0.707100
vn 0.000000 -0.587800 -0.809000
vn 0.000000 0.587800 0.809000
vn 0.000000 -0.454000 -0.891000
vn 0.000000 0.454000 0.891000
vn 0.000000 -0.309000 -0.951100
vn 0.000000 0.309000 0.951100
vn 0.000000 -0.156400 -0.987700
vn 0.000000 0.156400 0.987700
s off
f 3//1 1//1 2//1
f 56//2 49//2 11//2
f 55//3 10//3 49//3
f 52//4 48//4 8//4
f 7//5 47//5 44//5
f 12//2 45//2 48//2
f 59//2 13//2 14//2
f 50//6 46//6 45//6
f 50//5 51//5 8//5
f 54//7 11//7 9//7
f 62//5 63//5 17//5
f 55//5 16//5 9//5
f 58//5 57//5 53//5
f 60//8 14//8 53//8
f 66//9 64//9 24//9
f 62//10 18//10 20//10
f 22//11 19//11 17//11
f 58//12 15//12 13//12
f 32//5 25//5 26//5
f 67//13 23//13 21//13
f 68//2 21//2 64//2
f 61//2 20//2 19//2
f 74//5 75//5 69//5
f 67//5 65//5 24//5
f 72//14 27//14 25//14
f 72//2 71//2 28//2
f 79//5 77//5 33//5
f 74//15 31//15 29//15
f 76//16 30//16 69//16
f 70//17 26//17 28//17
f 3//18 38//18 40//18
f 79//19 34//19 36//19
f 73//2 29//2 30//2
f 78//20 35//20 33//20
f 80//2 36//2 35//2
f 2//21 39//21 37//21
f 1//5 40//5 39//5
f 3//2 4//2 37//2
f 43//22 44//22 42//22
f 6//23 42//23 44//23
f 5//2 41//2 42//2
f 7//24 43//24 41//24
f 7//25 5//25 6//25
f 46//26 8//26 48//26
f 50//27 12//27 52//27
f 10//28 9//28 11//28
f 55//29 56//29 54//29
f 14//30 13//30 15//30
f 60//31 57//31 58//31
f 19//32 20//32 18//32
f 22//33 63//33 62//33
f 64//34 21//34 23//34
f 67//35 68//35 66//35
f 27//36 28//36 26//36
f 70//37 71//37 72//37
f 31//38 69//38 30//38
f 76//39 75//39 74//39
f 34//40 33//40 35//40
f 79//41 80//41 78//41
f 38//42 37//42 39//42
f 4//1 3//1 2//1
f 54//2 56//2 11//2
f 56//3 55//3 49//3
f 51//4 52//4 8//4
f 43//5 7//5 44//5
f 52//2 12//2 48//2
f 60//2 59//2 14//2
f 12//6 50//6 45//6
f 46//5 50//5 8//5
f 16//7 54//7 9//7
f 18//5 62//5 17//5
f 10//5 55//5 9//5
f 15//5 58//5 53//5
f 57//8 60//8 53//8
f 65//9 66//9 24//9
f 61//10 62//10 20//10
f 63//11 22//11 17//11
f 59//12 58//12 13//12
f 70//5 32//5 26//5
f 68//13 67//13 21//13
f 66//2 68//2 64//2
f 22//2 61//2 19//2
f 31//5 74//5 69//5
f 23//5 67//5 24//5
f 32//14 72//14 25//14
f 27//2 72//2 28//2
f 34//5 79//5 33//5
f 73//15 74//15 29//15
f 75//16 76//16 69//16
f 71//17 70//17 28//17
f 1//18 3//18 40//18
f 80//19 79//19 36//19
f 76//2 73//2 30//2
f 77//20 78//20 33//20
f 78//2 80//2 35//2
f 4//21 2//21 37//21
f 2//5 1//5 39//5
f 38//2 3//2 37//2
f 41//22 43//22 42//22
f 47//23 6//23 44//23
f 6//2 5//2 42//2
f 5//24 7//24 41//24
f 47//25 7//25 6//25
f 45//26 46//26 48//26
f 51//27 50//27 52//27
f 49//28 10//28 11//28
f 16//29 55//29 54//29
f 53//30 14//30 15//30
f 59//31 60//31 58//31
f 17//32 19//32 18//32
f 61//33 22//33 62//33
f 24//34 64//34 23//34
f 65//35 67//35 66//35
f 25//36 27//36 26//36
f 32//37 70//37 72//37
f 29//38 31//38 30//38
f 73//39 76//39 74//39
f 36//40 34//40 35//40
f 77//41 79//41 78//41
f 40//42 38//42 39//42
